<svg width="34" height="34" viewBox="0 0 34 34" fill="none" xmlns="http://www.w3.org/2000/svg">
<g id="left-arrow 5" clip-path="url(#clip0_15759_64)">
<g id="Group">
<g id="Group_2">
<path id="Vector" d="M1.32822 15.6719H29.4551L24.7958 11.0351C24.2759 10.5177 24.2739 9.67678 24.7913 9.15689C25.3088 8.63693 26.1497 8.635 26.6696 9.15237L33.6094 16.0586C33.6098 16.059 33.6102 16.0595 33.6106 16.0599C34.1291 16.5773 34.1308 17.4209 33.6107 17.9401C33.6102 17.9405 33.6099 17.941 33.6095 17.9414L26.6698 24.8476C26.1499 25.3649 25.309 25.3631 24.7915 24.8431C24.274 24.3232 24.276 23.4823 24.7959 22.9648L29.4551 18.3281H1.32822C0.5947 18.3281 9.91821e-05 17.7335 9.91821e-05 17C9.91821e-05 16.2665 0.5947 15.6719 1.32822 15.6719Z" fill="#0DBC91"/>
</g>
</g>
</g>
<defs>
<clipPath id="clip0_15759_64">
<rect width="34" height="34" fill="white" transform="matrix(-1 0 0 1 34 0)"/>
</clipPath>
</defs>
</svg>
